<?xml version="1.0"?>
<svg width="595.28" height="841.89" xmlns="http://www.w3.org/2000/svg" xmlns:svg="http://www.w3.org/2000/svg">
 <style type="text/css">.st0{fill:#E30613;}
	.st1{fill:#009BA4;}
	.st2{fill:#EF7D00;}
	.st3{fill:#FFFFFF;}</style>
 <g class="layer">
  <title>Layer 1</title>
  <rect class="st0" fill="black" height="99.21" id="svg_1" width="38.69" x="12.93" y="11.24"/>
  <rect class="st1" fill="black" height="99.21" id="svg_2" width="38.69" x="61.12" y="11.24"/>
  <rect class="st2" height="99.21" id="svg_3" width="38.69" x="109.31" y="11.24"/>
  <rect class="st0" fill="black" height="10.48" id="svg_4" width="135.07" x="12.93" y="117.92"/>
  <g id="svg_5">
   <path class="st3" d="m9.78,110.46l0,-4.57l2.34,0c1.78,0 2.88,-0.21 3.31,-0.63s0.64,-1.45 0.64,-3.09l0,-23.7c0,-1.64 -0.21,-2.67 -0.64,-3.09s-1.53,-0.63 -3.31,-0.63l-2.34,0l0,-4.54l22.85,0c7.03,0 12.35,1.7 15.95,5.1s5.41,8.4 5.41,15s-1.81,11.61 -5.42,15.03s-8.93,5.13 -15.94,5.13l-22.85,0l0,-0.01zm14.77,-4.57l5.27,0c3.14,0 5.5,-0.24 7.06,-0.73s2.91,-1.32 4.04,-2.49s2.03,-2.85 2.68,-5.04s0.98,-4.63 0.98,-7.32s-0.33,-5.13 -0.98,-7.29s-1.55,-3.84 -2.68,-5.01s-2.48,-2.01 -4.04,-2.5s-3.92,-0.75 -7.06,-0.75l-5.27,0l0,31.13z" id="svg_6"/>
  </g>
  <g id="svg_7">
   <path class="st3" d="m123.25,102.17c0,1.62 0.24,2.65 0.73,3.08c0.49,0.43 1.73,0.64 3.72,0.64l3.12,0l0,4.57l-23.95,0l0,-4.57l2.6,0c1.97,0 3.2,-0.21 3.67,-0.63s0.72,-1.45 0.72,-3.09l0,-23.7c0,-1.64 -0.24,-2.67 -0.72,-3.09s-1.7,-0.63 -3.67,-0.63l-2.6,0l0,-4.54l23.5,0c6.02,0 10.57,0.93 13.63,2.78s4.6,4.61 4.6,8.26c0,1.99 -0.42,3.73 -1.25,5.21c-0.83,1.48 -2.1,2.74 -3.79,3.78c-1.21,0.72 -2.9,1.24 -5.07,1.55s-5.19,0.47 -9.07,0.47l-6.17,0l0,9.91zm0,-14.45l4.45,0c4.09,0 6.97,-0.49 8.63,-1.48c1.66,-0.99 2.49,-2.65 2.49,-5c0,-2.4 -0.8,-4.09 -2.39,-5.05c-1.59,-0.97 -4.67,-1.45 -9.25,-1.45l-3.93,0l0,12.98z" id="svg_8"/>
  </g>
  <g id="svg_9">
   <path class="st3" d="m60.86,70.2l22.56,0l0,4.54l-2.94,0c-1.88,0 -3.05,0.21 -3.5,0.64c-0.46,0.43 -0.69,1.46 -0.69,3.08l0,27.42l7.84,0c2.8,0 4.89,-0.23 6.27,-0.69s2.39,-1.23 3,-2.3c0.59,-1.04 1.03,-2.29 1.32,-3.78c0.29,-1.48 0.43,-3.26 0.43,-5.33l0,-0.73l4.84,0l0,17.4l-39.13,0l0,-4.57l2.45,0c1.86,0 3.01,-0.21 3.46,-0.63c0.45,-0.42 0.67,-1.45 0.67,-3.09l0,-23.7c0,-1.64 -0.23,-2.67 -0.67,-3.09c-0.45,-0.42 -1.6,-0.63 -3.46,-0.63l-2.45,0l0,-4.54z" id="svg_10"/>
  </g>
 </g>
</svg>